<mxfile host="app.diagrams.net" agent="Mozilla/5.0 (Windows NT 10.0; Win64; x64) AppleWebKit/537.36 (KHTML, like Gecko) Chrome/141.0.0.0 Safari/537.36" version="28.2.8">
  <diagram name="第 1 页" id="PH6gEFHtQObtW0aymPby">
    <mxGraphModel dx="896" dy="268" grid="0" gridSize="10" guides="1" tooltips="1" connect="1" arrows="1" fold="1" page="0" pageScale="1" pageWidth="827" pageHeight="1169" math="0" shadow="0">
      <root>
        <mxCell id="0" />
        <mxCell id="1" parent="0" />
        <mxCell id="vDJOXgGUtyI4zKx44Wpp-1" value="&lt;font face=&quot;Comic Sans MS&quot;&gt;logging&lt;/font&gt;&lt;div&gt;&lt;font face=&quot;Comic Sans MS&quot;&gt;python标准库&lt;/font&gt;&lt;/div&gt;" style="rounded=1;whiteSpace=wrap;html=1;sketch=1;curveFitting=1;jiggle=2;" vertex="1" parent="1">
          <mxGeometry x="-17" width="120" height="60" as="geometry" />
        </mxCell>
        <mxCell id="vDJOXgGUtyI4zKx44Wpp-3" value="&lt;blockquote style=&quot;margin: 0 0 0 40px; border: none; padding: 0px;&quot;&gt;&lt;font face=&quot;Comic Sans MS&quot;&gt;// 配置日志级别&lt;/font&gt;&lt;/blockquote&gt;&lt;blockquote style=&quot;margin: 0 0 0 40px; border: none; padding: 0px;&quot;&gt;&lt;font face=&quot;Comic Sans MS&quot;&gt;logging.basicConfig(level=logging.DEBUG)&lt;/font&gt;&lt;div&gt;&lt;font face=&quot;Comic Sans MS&quot;&gt;// 创建日志入口&lt;/font&gt;&lt;/div&gt;&lt;div&gt;&lt;div&gt;&lt;font face=&quot;Comic Sans MS&quot;&gt;logger = logging.getLogger(__name__)&lt;/font&gt;&lt;/div&gt;&lt;/div&gt;&lt;/blockquote&gt;" style="rounded=1;whiteSpace=wrap;html=1;sketch=1;curveFitting=1;jiggle=2;align=left;" vertex="1" parent="1">
          <mxGeometry x="-126" y="101" width="291" height="95" as="geometry" />
        </mxCell>
      </root>
    </mxGraphModel>
  </diagram>
</mxfile>
